<svg width="589" height="305" viewBox="0 0 589 305" fill="none" xmlns="http://www.w3.org/2000/svg">
<rect width="589" height="305" rx="22" fill="black"/>
<path d="M49.4014 28.5818H152.923L145.731 73.2456L118.479 71.7315L103.528 165.033H54.7005L69.6515 71.5423L42.2098 72.4885L49.4014 28.5818Z" fill="white"/>
<path d="M47.4082 206.119H96.0859L83.0859 279.033H35.0859L47.4082 206.119Z" fill="white"/>
<path d="M170.876 183.122H216.108L201.914 278.694H155.925L158.007 265.636L154.411 269.61C151.131 272.891 146.841 275.603 141.542 277.748C136.243 279.893 131.196 280.965 126.402 280.965C116.308 280.965 108.233 277.433 102.177 270.367C96.2474 263.176 93.2825 253.65 93.2825 241.79C93.2825 225.262 98.2031 210.879 108.044 198.64C117.885 186.402 129.493 180.283 142.867 180.283C155.61 180.283 164.252 185.519 168.794 195.991L170.876 183.122ZM139.46 236.68C139.965 238.951 141.164 240.844 143.056 242.358C145.075 243.746 147.472 244.44 150.248 244.44C154.411 244.44 157.944 242.799 160.846 239.519C163.874 236.112 165.388 232.138 165.388 227.596C165.388 224.189 164.379 221.477 162.36 219.458C160.341 217.439 157.692 216.43 154.411 216.43C150.122 216.43 146.463 218.133 143.435 221.54C140.533 224.82 139.082 229.047 139.082 234.22L139.46 236.68Z" fill="white"/>
<path d="M219.918 183.122H265.339L261.175 199.397C266.979 192.584 272.467 187.79 277.64 185.014C282.939 182.112 288.869 180.661 295.43 180.661C304.136 180.661 310.949 183.185 315.869 188.231C320.916 193.152 323.439 200.028 323.439 208.86L322.872 217.376L313.22 278.694H267.042L274.612 230.435L275.18 224.568C275.18 220.404 273.161 218.323 269.124 218.323C263.572 218.323 260.229 222.36 259.093 230.435L251.334 278.694H204.778L219.918 183.122Z" fill="white"/>
<path d="M51.7971 183.122H100.878L97.5859 198.119L48.5859 202.119L51.7971 183.122Z" fill="white"/>
<path d="M419.849 186.949C420.357 184.661 422.386 183.033 424.73 183.033H520.168C523.307 183.033 525.67 185.892 525.078 188.976L507.997 277.976C507.546 280.331 505.485 282.033 503.087 282.033H404.952C401.753 282.033 399.377 279.071 400.071 275.949L419.849 186.949Z" fill="white"/>
<path d="M511.052 192.533C512.964 192.533 514.388 194.297 513.985 196.166L500.703 257.723C500.354 259.342 498.757 260.372 497.138 260.022L490.296 258.546C488.676 258.196 487.647 256.6 487.996 254.981L495.836 218.643L454.625 258.62C453.281 259.923 451.085 259.691 450.043 258.136L440.77 244.288C440.018 243.165 438.391 243.096 437.546 244.152L405.667 284.014C404.632 285.308 402.744 285.518 401.45 284.483L395.984 280.111C394.69 279.076 394.48 277.188 395.514 275.894L437.624 223.242C438.891 221.659 441.331 221.762 442.46 223.447L452.173 237.951C453.215 239.508 455.414 239.739 456.757 238.432L490.586 205.533H456.11C454.453 205.533 453.11 204.19 453.11 202.533V195.533C453.11 193.876 454.453 192.533 456.11 192.533H511.052Z" fill="black"/>
<path d="M373.537 178.715C377.231 178.715 380.924 178.906 384.617 179.288C388.319 179.671 392.08 180.372 395.899 181.389C399.931 182.299 404.876 184.299 410.715 187.345L411.637 187.825L411.12 188.728L395.412 216.17L394.86 217.134L393.96 216.484C386.326 210.978 379.912 208.346 374.673 208.346C372.55 208.346 370.863 208.816 369.55 209.691C368.278 210.539 367.725 211.569 367.725 212.834C367.725 213.501 367.954 214.021 368.438 214.46C368.89 214.871 369.601 215.243 370.643 215.527L371.109 215.645L371.157 215.655L373.976 216.595L378.064 217.338H378.065C387.338 218.989 394.13 221.745 398.256 225.73C402.54 229.747 404.629 235.337 404.629 242.357C404.629 254.541 399.615 264.362 389.651 271.738L389.649 271.74C379.839 278.969 366.867 282.533 350.827 282.533C336.898 282.533 322.866 278.954 308.741 271.828L307.798 271.352L308.324 270.437L324.979 241.48L325.593 240.413L326.512 241.233C329.962 244.314 333.844 246.779 338.162 248.63C342.496 250.487 346.333 251.388 349.691 251.388C352.437 251.388 354.316 250.879 355.487 250.021C356.601 249.204 357.208 247.972 357.208 246.143C357.208 245.416 356.877 244.776 355.967 244.194C355.009 243.583 353.472 243.088 351.258 242.78L351.23 242.776C346.688 242.019 343.34 241.451 341.19 241.071L341.156 241.065L341.122 241.057C338.948 240.513 335.428 238.801 330.644 236.031L330.636 236.026L330.627 236.021C325.4 232.858 322.953 226.745 322.953 218.133C322.953 206.225 327.568 196.656 336.777 189.522C346.084 182.285 358.37 178.715 373.537 178.715Z" fill="white" stroke="black" stroke-width="2"/>
<path d="M216.046 66L216.072 66.001L219.668 66.1904L220.773 66.249L220.604 67.3428L213.412 113.71L213.154 115.372L211.817 114.352C207.14 110.782 202.68 109.068 198.419 109.068C196.374 109.068 194.393 109.369 192.473 109.969L192.444 109.978L192.416 109.984C190.562 110.448 188.151 111.636 185.158 113.631C183.88 114.483 182.654 116.136 181.552 118.769C180.456 121.385 179.526 124.868 178.776 129.244L173.101 165.189L172.968 166.033H124.575L124.759 164.877L139.898 69.3037L140.032 68.46H187.846L187.675 69.6074L186.266 79.082C192.829 70.3371 202.804 66.0001 216.02 66H216.046Z" fill="white" stroke="black" stroke-width="2"/>
<path d="M266.876 64.6758C282.2 64.6758 294.394 68.8302 303.331 77.249C312.277 85.6766 316.703 97.255 316.703 111.854C316.703 115.838 316.254 120.315 315.363 125.278L315.215 126.102H247.16L246.68 131.388C246.686 134.716 247.404 137.03 248.664 138.504C249.903 139.954 251.809 140.756 254.574 140.756C257.255 140.756 259.428 140.132 261.152 138.944C262.876 137.757 264.232 135.952 265.185 133.451L265.43 132.807H312.711L312.072 134.219C307.184 145.025 299.145 153.631 288.003 160.034C276.989 166.436 264.639 169.63 250.979 169.63C235.676 169.63 223.378 165.865 214.192 158.232C204.98 150.577 200.395 140.125 200.395 126.994C200.395 109.557 206.819 94.7842 219.635 82.7373C232.45 70.6913 248.219 64.6758 266.876 64.6758ZM263.659 92.9824C260.121 92.9824 257.357 94.1494 255.266 96.4414C253.314 98.5805 251.882 101.775 251.039 106.122H272.112L272.688 103.246C272.67 100.214 271.791 97.7776 270.101 95.8613C268.401 93.9352 266.279 92.9825 263.659 92.9824Z" fill="white" stroke="black" stroke-width="2"/>
<path d="M398.555 66C407.452 66 414.543 68.5832 419.692 73.8545L420.18 74.3428C425.137 79.457 427.564 86.4513 427.564 95.1982V95.2324L427.562 95.2656L426.994 103.781L426.991 103.826L426.984 103.871L417.332 165.188L417.199 166.033H368.998L369.179 164.878L376.743 116.651L377.304 110.867C377.297 108.954 376.83 107.7 376.072 106.919C375.315 106.138 374.105 105.661 372.248 105.661C369.75 105.661 367.817 106.553 366.348 108.327C364.842 110.145 363.763 112.966 363.208 116.913L363.207 116.923L363.205 116.933L355.446 165.191L355.311 166.033H306.731L306.915 164.877L322.055 69.3037L322.188 68.46H369.751L369.433 69.708L366.291 81.9854C371.141 76.7338 375.803 72.8818 380.284 70.4756C385.743 67.4862 391.841 66 398.555 66Z" fill="white" stroke="black" stroke-width="2"/>
<path d="M555.427 18.1191L555.243 19.2754L532.154 165.189L532.021 166.033H486.301L486.459 164.896L488.036 153.566C479.388 163.741 468.58 168.872 455.655 168.872C445.657 168.872 437.487 165.154 431.233 157.729C424.992 150.317 421.914 140.672 421.914 128.886C421.914 111.777 426.772 97.0431 436.514 84.7373C446.259 72.4275 458.012 66.1895 471.741 66.1895C477.947 66.1895 483.426 67.5483 488.143 70.2998H488.142C492.127 72.5635 495.316 75.6296 497.704 79.4834L507.279 18.9629L507.413 18.1191H555.427ZM484.232 103.77C480.843 103.77 477.798 104.987 475.065 107.481L475.063 107.483C472.481 109.831 470.813 112.952 470.085 116.906L469.902 119.641C469.908 122.823 470.848 125.253 472.638 127.043C474.44 128.846 476.821 129.778 479.879 129.778C483.889 129.778 487.218 128.318 489.931 125.37C492.638 122.428 494.02 118.644 494.02 113.935C494.019 110.721 493.132 108.274 491.451 106.481C489.79 104.71 487.431 103.77 484.232 103.77Z" fill="white" stroke="black" stroke-width="2"/>
</svg>
